<?xml version="1.0" encoding="UTF-8" standalone="no"?>
<!-- Created with Inkscape (http://www.inkscape.org/) -->

<svg
   width="1200mm"
   height="630mm"
   viewBox="0 0 1200 630"
   version="1.1"
   id="svg1"
   xml:space="preserve"
   inkscape:version="1.4.3 (0d15f75, 2025-12-25)"
   sodipodi:docname="ghostrepo-dark-text.svg"
   xmlns:inkscape="http://www.inkscape.org/namespaces/inkscape"
   xmlns:sodipodi="http://sodipodi.sourceforge.net/DTD/sodipodi-0.dtd"
   xmlns:xlink="http://www.w3.org/1999/xlink"
   xmlns="http://www.w3.org/2000/svg"
   xmlns:svg="http://www.w3.org/2000/svg"><sodipodi:namedview
     id="namedview1"
     pagecolor="#000000"
     bordercolor="#cccccc"
     borderopacity="1"
     inkscape:showpageshadow="0"
     inkscape:pageopacity="1"
     inkscape:pagecheckerboard="0"
     inkscape:deskcolor="#d1d1d1"
     inkscape:document-units="mm"
     inkscape:zoom="0.14309326"
     inkscape:cx="1645.7798"
     inkscape:cy="667.39692"
     inkscape:window-width="2560"
     inkscape:window-height="1529"
     inkscape:window-x="-8"
     inkscape:window-y="-8"
     inkscape:window-maximized="1"
     inkscape:current-layer="layer1" /><defs
     id="defs1"><inkscape:path-effect
       effect="fillet_chamfer"
       id="path-effect4234"
       is_visible="true"
       lpeversion="1"
       nodesatellites_param="F,0,0,1,0,0,0,1 @ F,0,0,1,0,0,0,1 @ F,0,0,1,0,0,0,1 @ F,0,0,1,0,0,0,1 @ F,0,0,1,0,0,0,1 @ F,0,0,1,0,0,0,1 @ F,0,0,1,0,0,0,1 @ F,0,0,1,0,0,0,1 @ F,0,0,1,0,0,0,1 @ F,0,0,1,0,0,0,1 @ F,0,0,1,0,0,0,1 @ F,0,0,1,0,0,0,1 @ F,0,0,1,0,0,0,1 @ F,0,0,1,0,0,0,1 @ F,0,0,1,0,0,0,1 @ F,0,0,1,0,0,0,1 @ F,0,0,1,0,0,0,1 @ F,0,0,1,0,0,0,1 @ F,0,0,1,0,0,0,1 @ F,0,0,1,0,0,0,1 @ F,0,0,1,0,0,0,1 @ F,0,0,1,0,0,0,1 @ F,0,0,1,0,0,0,1 @ F,0,0,1,0,0,0,1 @ F,0,0,1,0,0,0,1 @ F,0,0,1,0,0,0,1 @ F,0,0,1,0,0,0,1 @ F,0,0,1,0,0,0,1 @ F,0,0,1,0,0,0,1 @ F,0,0,1,0,0,0,1 @ F,0,0,1,0,0,0,1 @ F,0,0,1,0,0,0,1 @ F,0,0,1,0,0,0,1 @ F,0,0,1,0,0,0,1 @ F,0,0,1,0,0,0,1 @ F,0,0,1,0,0,0,1 @ F,0,0,1,0,0,0,1 @ F,0,0,1,0,0,0,1 @ F,0,0,1,0,0,0,1 @ F,0,0,1,0,0,0,1 @ F,0,0,1,0,0,0,1 @ F,0,0,1,0,0,0,1 @ F,0,0,1,0,0,0,1 @ F,0,0,1,0,0,0,1 @ F,0,0,1,0,0,0,1 @ F,0,0,1,0,0,0,1 @ F,0,0,1,0,0,0,1 @ F,0,0,1,0,0,0,1 @ F,0,0,1,0,0,0,1 @ F,0,0,1,0,0,0,1 @ F,0,0,1,0,0,0,1 @ F,0,0,1,0,0,0,1 @ F,0,0,1,0,0,0,1 @ F,0,0,1,0,0,0,1 @ F,0,0,1,0,0,0,1 @ F,0,0,1,0,0,0,1 @ F,0,0,1,0,0,0,1 @ F,0,0,1,0,0,0,1 @ F,0,0,1,0,0,0,1 @ F,0,0,1,0,0,0,1 @ F,0,0,1,0,0,0,1 @ F,0,0,1,0,0,0,1 @ F,0,0,1,0,0,0,1 @ F,0,0,1,0,0,0,1 @ F,0,0,1,0,0,0,1 @ F,0,0,1,0,0,0,1 @ F,0,0,1,0,0,0,1 @ F,0,0,1,0,0,0,1 @ F,0,0,1,0,0,0,1 @ F,0,0,1,0,0,0,1 @ F,0,0,1,0,0,0,1 @ F,0,0,1,0,0,0,1 @ F,0,0,1,0,0,0,1 @ F,0,0,1,0,0,0,1 @ F,0,0,1,0,0,0,1 @ F,0,0,1,0,0,0,1 @ F,0,0,1,0,0,0,1 @ F,0,0,1,0,0,0,1 @ F,0,0,1,0,0,0,1 @ F,0,0,1,0,0,0,1 @ F,0,0,1,0,0,0,1 @ F,0,0,1,0,0,0,1 @ F,0,0,1,0,0,0,1 @ F,0,0,1,0,0,0,1 @ F,0,0,1,0,0,0,1 @ F,0,0,1,0,0,0,1 @ F,0,0,1,0,0,0,1 @ F,0,0,1,0,0,0,1 @ F,0,0,1,0,0,0,1 @ F,0,0,1,0,0,0,1 @ F,0,0,1,0,0,0,1 @ F,0,0,1,0,0,0,1 @ F,0,0,1,0,0,0,1 @ F,0,0,1,0,0,0,1 @ F,0,0,1,0,0,0,1 @ F,0,0,1,0,0,0,1 @ F,0,0,1,0,0,0,1 @ F,0,0,1,0,0,0,1 @ F,0,0,1,0,0,0,1 @ F,0,0,1,0,0,0,1 @ F,0,0,1,0,0,0,1 @ F,0,0,1,0,0,0,1 @ F,0,0,1,0,0,0,1 @ F,0,0,1,0,0,0,1 @ F,0,0,1,0,0,0,1 @ F,0,0,1,0,0,0,1 @ F,0,0,1,0,0,0,1 @ F,0,0,1,0,0,0,1 @ F,0,0,1,0,0,0,1 @ F,0,0,1,0,0,0,1 @ F,0,0,1,0,0,0,1 @ F,0,0,1,0,0,0,1 @ F,0,0,1,0,0,0,1 @ F,0,0,1,0,0,0,1 @ F,0,0,1,0,0,0,1 @ F,0,0,1,0,0,0,1 @ F,0,0,1,0,0,0,1 @ F,0,0,1,0,0,0,1 @ F,0,0,1,0,0,0,1 @ F,0,0,1,0,0,0,1 @ F,0,0,1,0,0,0,1 @ F,0,0,1,0,0,0,1"
       radius="0"
       unit="px"
       method="auto"
       mode="F"
       chamfer_steps="1"
       flexible="false"
       use_knot_distance="true"
       apply_no_radius="true"
       apply_with_radius="true"
       only_selected="false"
       hide_knots="false" /><linearGradient
       id="linearGradient4233"
       inkscape:collect="always"><stop
         style="stop-color:#e4e1f6;stop-opacity:1;"
         offset="0.4228572"
         id="stop4233" /><stop
         style="stop-color:#3649c9;stop-opacity:1;"
         offset="0.76800001"
         id="stop4234" /></linearGradient><linearGradient
       id="linearGradient4231"
       inkscape:collect="always"><stop
         style="stop-color:#e4e1f6;stop-opacity:1;"
         offset="0.27085716"
         id="stop4231" /><stop
         style="stop-color:#0080ff;stop-opacity:0;"
         offset="1"
         id="stop4232" /></linearGradient><linearGradient
       id="linearGradient4224"
       inkscape:collect="always"><stop
         style="stop-color:#1225ba;stop-opacity:1;"
         offset="0"
         id="stop4224" /><stop
         style="stop-color:#897ede;stop-opacity:1;"
         offset="0.84457141"
         id="stop4225" /></linearGradient><linearGradient
       inkscape:collect="always"
       xlink:href="#linearGradient4224"
       id="linearGradient4225"
       x1="-134.14789"
       y1="145.38986"
       x2="9.9866476"
       y2="241.53928"
       gradientUnits="userSpaceOnUse" /><linearGradient
       inkscape:collect="always"
       xlink:href="#linearGradient4231"
       id="linearGradient4232"
       x1="54.761608"
       y1="427.39499"
       x2="97.876831"
       y2="318.5379"
       gradientUnits="userSpaceOnUse" /><linearGradient
       inkscape:collect="always"
       xlink:href="#linearGradient4233"
       id="linearGradient4234"
       x1="327.09482"
       y1="141.18965"
       x2="-135.0724"
       y2="141.18965"
       gradientUnits="userSpaceOnUse" /></defs><g
     inkscape:label="Layer 1"
     inkscape:groupmode="layer"
     id="layer1"><g
       id="g4201"
       transform="matrix(0.89007336,0,0,0.89007336,768.21779,203.20956)"><path
         id="path4218"
         style="display:inline;fill:url(#linearGradient4225);stroke-width:1.535;stroke-dasharray:none"
         inkscape:label="ghost without slash"
         d="m 142.03419,-134.14844 -6.70244,0.43201 c -3.68653,0.2377 -7.25841,0.4694 -7.9375,0.5147 -2.22873,0.14874 -7.54829,0.80593 -10.9492,1.35289 -1.83622,0.29532 -3.81454,0.60696 -4.39663,0.69246 -1.07221,0.15754 -6.27999,1.18905 -11.1125,2.2009 -1.45521,0.3047 -3.145828,0.7715 -3.756877,1.03767 -0.611048,0.26617 -1.704875,0.59553 -2.430859,0.73173 -0.725983,0.13619 -2.129076,0.54353 -3.117639,0.90486 -0.988563,0.36133 -2.163146,0.65681 -2.610177,0.65681 -0.447031,0 -1.401959,0.29604 -2.121834,0.65784 -0.719874,0.36179 -1.94362,0.84881 -2.719731,1.08262 -0.776111,0.2338 -1.728611,0.55783 -2.116666,0.71985 -0.388056,0.16202 -2.054931,0.80101 -3.704167,1.42007 -1.649236,0.61905 -3.395313,1.2904 -3.880383,1.4919 -0.485069,0.2015 -1.199444,0.48698 -1.5875,0.63407 -0.388055,0.14708 -2.091546,0.91959 -3.785299,1.71669 -1.693754,0.79709 -3.289295,1.44901 -3.54552,1.44901 -0.256226,0 -0.616659,0.14067 -0.800985,0.31264 -0.184326,0.17197 -2.63691,1.47115 -5.450313,2.88716 -5.257355,2.64606 -11.011795,6.0131 -15.615068,9.13639 -1.438815,0.97622 -2.713524,1.77509 -2.832385,1.77509 -0.46902,0 -5.945762,4.697878 -9.661426,7.541659 -1.755654,1.34269 -3.396979,2.408329 -4.485514,3.326411 -0.455632,0.384286 -0.600488,0.61712 -1.014408,0.966867 -3.297611,2.669326 -5.310241,3.853498 -7.697205,6.008418 -2.218669,2.002985 -11.0934693,11.225309 -14.0611571,14.612028 -1.6152006,1.843264 -3.11373787,3.51014 -3.33002928,3.704167 -0.21629142,0.194028 -1.05120121,1.306909 -1.85570072,2.473234 -0.8044994,1.166326 -1.8740151,2.595076 -2.3765991,3.175 -3.4309167,3.958883 -10.1133608,13.815287 -12.9134238,19.046383 -0.623146,1.164167 -1.474714,2.751839 -1.891874,3.52795 -0.41716,0.776111 -0.956876,1.620494 -1.19941,1.876888 -0.242535,0.256394 -0.4408,0.640813 -0.4408,0.854211 0,0.213397 -0.223889,0.638843 -0.497644,0.945162 -0.592062,0.66249 -3.382739,6.005985 -3.382739,6.477124 0,0.180378 -0.397047,0.799672 -0.882117,1.376144 l -0.882117,1.047998 v 0.722953 c 0,0.397674 -0.451078,1.615656 -1.002522,2.706811 -0.551443,1.091155 -1.119323,2.460626 -1.261939,3.042709 -0.264095,1.077901 -0.492262,1.638482 -2.110465,5.181596 -0.504053,1.103645 -0.917607,2.135347 -0.918807,2.292883 -0.0012,0.157536 -0.204541,0.683335 -0.452169,1.168404 -0.247628,0.4850697 -0.661995,1.5964918 -0.920357,2.4696167 -0.258362,0.873125 -0.606711,1.9048278 -0.774113,2.2928833 -0.418493,0.97011 -1.773286,6.03927685 -2.074292,7.7612834 -0.135664,0.7761111 -0.734459,2.8395167 -1.331185,4.5857666 -2.260649,6.615531 -4.346092,17.982124 -5.210018,28.398783 -0.361103,4.353937 -0.594679,6.25789 -0.874365,7.12618 l -0.306958,0.952914 -0.03411,67.662533 c -0.01869,37.21437 -0.11338,68.53532 -0.21084,69.60247 -0.732797,8.02429 -1.696234,13.92886 -2.964677,18.1684 -0.34831,1.16417 -0.810466,2.75133 -1.02681,3.52744 -1.505322,5.40019 -4.526096,13.44009 -6.111772,16.2667 -1.073006,1.91274 -1.145768,1.93425 -1.769918,3.01222 -1.400583,2.48986 -2.639544,4.51849 -4.396114,7.26881 -0.103019,0.17139 -0.179964,0.27423 -0.277502,0.43977 -2.116462,3.59195 -5.751717,8.37837 -8.842355,11.64166 -1.052628,1.11143 -1.986885,1.88444 -3.00085,2.89698 -2.497025,2.44978 -3.993166,4.02188 -6.275069,6.04615 -2.935003,2.53438 -5.7964,4.70562 -8.706962,6.6089 -0.586239,0.38335 -0.350872,0.2009 -0.838709,0.51883 -2.333765,1.52388 -4.668469,3.00455 -7.091557,4.36252 -0.699737,0.34571 -1.780786,0.91983 -2.653068,1.42834 -0.970139,0.56554 -2.319173,1.21893 -2.99826,1.45211 -0.6791,0.23318 -2.26677,0.89672 -3.52795,1.47484 -1.26118,0.57813 -2.68993,1.17873 -3.175,1.33429 -0.48507,0.15557 -1.7549,0.61632 -2.82205,1.02371 -2.30087,0.87837 -8.48118,2.67435 -10.2309,2.97346 -0.6791,0.11609 -2.02813,0.39458 -2.99827,0.61857 -0.97013,0.22399 -2.47861,0.44309 -3.35173,0.48679 -0.87313,0.0438 -1.98403,0.19936 -2.4691,0.34571 -0.48507,0.14634 -1.47612,0.24244 -2.20245,0.21394 l -1.32085,-0.0517 -1.41335,0.7214 -1.41335,0.72089 v 0.70021 0.70073 l 2.03191,2.02624 c 1.11778,1.11457 2.61188,2.503 3.32021,3.08508 0.70832,0.58209 2.9759,2.69288 5.03897,4.69119 2.06308,1.99832 4.73615,4.46162 5.94021,5.47356 3.5338,2.96995 18.937106,14.35313 19.422067,14.35313 0.112692,0 2.472912,1.37051 5.244641,3.04581 2.86567,1.73208 4.579183,2.38979 7.201628,3.86385 0.782673,0.44987 1.721148,1.04219 2.247408,1.33377 1.26118,0.69878 2.68993,1.50801 3.175,1.79834 0.285313,0.17076 1.973866,0.86464 2.509924,1.13843 0.338182,0.17282 0.484626,0.27209 0.823722,0.44183 0.101588,0.0516 0.180966,0.0863 0.281637,0.13695 1.710452,0.84366 4.340014,2.48353 5.7335,3.07629 0.388056,0.16507 2.53118,1.12314 4.7625,2.12907 6.843785,3.08534 14.542485,5.75503 21.87205,7.58455 11.132209,2.7787 10.878335,2.7259 17.540015,3.63751 2.759063,0.37757 5.19093,0.79467 5.404321,0.92655 0.213392,0.13188 1.505432,0.29744 2.870626,0.36794 1.365195,0.0705 2.663608,0.26933 2.885612,0.44183 l 0.403593,0.31316 12.9056719,0.0274 12.9056722,0.0269 1.5580449,-0.3576 c 0.856979,-0.19681 2.669466,-0.42127 4.027661,-0.49867 2.723004,-0.15528 8.079181,-0.98468 9.821106,-1.52084 0.613325,-0.18878 2.464724,-0.60432 4.11396,-0.92346 8.441385,-1.63344 18.547439,-4.50369 24.164934,-6.86315 0.582083,-0.24449 2.090552,-0.83773 3.351733,-1.31775 1.26118,-0.48002 3.605534,-1.49481 5.210018,-2.25567 1.604485,-0.76085 3.069246,-1.38338 3.255098,-1.38338 0.402102,0 9.294973,-4.36846 10.63656,-5.225 1.931081,-1.23291 7.077628,-4.49949 7.992794,-5.07308 0.523288,-0.32797 2.103637,-1.23511 3.512447,-2.0159 l 3.118673,-1.20561 c 0,0 11.217203,-27.53483 12.263333,-30.40073 0.49577,-1.35819 1.31417,-3.58103 1.81901,-4.93923 0.50484,-1.35819 1.47057,-4.12787 2.14613,-6.15518 0.67555,-2.0273 1.35245,-3.8531 1.5043,-4.05712 0.15185,-0.20402 0.46845,-1.08541 0.70331,-1.95853 0.23485,-0.87313 0.72888,-2.30188 1.09813,-3.175 0.36925,-0.87313 1.18358,-3.01625 1.80919,-4.7625 0.6256,-1.74625 1.27002,-3.32554 1.43247,-3.50987 0.16246,-0.18433 0.29559,-0.62325 0.29559,-0.97513 0,-0.35189 0.15733,-0.9152 0.34985,-1.25212 0.19252,-0.33691 1.14014,-2.99413 2.10581,-5.90455 0.96567,-2.91041 1.9445,-5.84713 2.17507,-6.52622 0.40577,-1.1951 2.20239,-5.79524 2.82463,-7.23211 0.39318,-0.90793 3.37916,-9.38986 4.03593,-11.46494 0.27635,-0.87312 0.64752,-1.90535 0.82527,-2.2934 0.17775,-0.38806 1.22639,-3.40396 2.33009,-6.70243 1.10371,-3.29847 2.13464,-6.15597 2.29082,-6.35 0.15618,-0.19403 0.59501,-1.22625 0.97513,-2.2934 0.84777,-2.38003 3.3863,-9.35929 4.36253,-11.9941 0.39539,-1.06715 0.86638,-2.57561 1.04644,-3.35173 0.18007,-0.77611 0.46172,-1.72862 0.62632,-2.11667 0.70694,-1.66668 1.11008,-2.70769 2.66392,-6.87917 0.90343,-2.42535 1.77299,-4.72687 1.93218,-5.11493 0.1592,-0.38805 0.45252,-1.10243 0.65164,-1.5875 0.19911,-0.48507 0.80264,-2.31087 1.34152,-4.05712 1.65119,-5.35067 3.04911,-9.50735 3.32177,-9.87795 0.14275,-0.19402 0.70159,-1.54305 1.2423,-2.99826 0.5407,-1.45521 1.13117,-2.8354 1.31206,-3.067 0.18088,-0.23159 0.53962,-1.1841 0.79685,-2.11667 0.25723,-0.93258 0.88021,-2.80622 1.38441,-4.16357 0.50421,-1.35735 0.91674,-2.74878 0.91674,-3.0918 0,-0.34302 0.14875,-0.89919 0.33073,-1.2361 0.18197,-0.33692 0.75783,-1.80299 1.28003,-3.2582 1.00462,-2.79963 1.40015,-3.78732 2.54713,-6.36188 0.39179,-0.87944 0.89825,-2.28915 1.12551,-3.13314 0.22726,-0.84399 0.5458,-1.79144 0.70797,-2.1053 0.49663,-0.96123 1.7694,-4.34798 1.7694,-4.70824 0,-0.1867 0.3284,-0.80074 0.72967,-1.36426 l 0.72967,-1.02526 h 13.72526 13.72526 l 0.52865,1.02216 0.52865,1.02216 -2.08049,5.94537 c -1.14423,3.26989 -2.82491,7.92959 -3.73466,10.35493 -0.90976,2.42536 -2.71766,7.54145 -4.01732,11.36933 -1.29966,3.82788 -2.47201,7.06914 -2.60553,7.20266 -0.13352,0.13353 -0.24288,0.54917 -0.24288,0.92346 0,0.37429 -0.22404,1.10194 -0.49816,1.61695 -1.10068,2.06791 -2.00513,4.43442 -3.93826,10.30842 -1.11321,3.38256 -2.71357,7.91185 -3.55637,10.06502 -0.84281,2.15318 -1.53331,4.05817 -1.53531,4.23333 -0.002,0.17516 -0.96728,2.77878 -2.1456,5.78621 -1.17832,3.00743 -2.29923,6.13431 -2.49081,6.94841 -0.40202,1.70834 -2.81664,8.63544 -4.7103,13.51287 -0.71565,1.84327 -1.82762,4.85969 -2.47117,6.70295 -0.64355,1.84325 -1.83147,5.17702 -2.63963,7.40834 -0.80816,2.23132 -1.91539,5.40614 -2.46032,7.05538 -1.05609,3.19623 -1.75887,5.10518 -2.92282,7.9375 -0.39868,0.97014 -1.64659,4.46281 -2.77295,7.76128 -2.08527,6.10655 -4.24215,12.20568 -5.55109,15.69827 -4.13463,11.03233 -3.76255,9.9996 -5.9092,16.40417 -0.91046,2.71639 -2.24796,6.36798 -2.97242,8.11423 -0.72445,1.74625 -2.0682,5.39733 -2.98587,8.11372 -2.37624,6.74933 -4.39758,13.59262 -6.77168,20.36413 -0.59759,1.76431 -34.378365,98.01364 -35.917702,104.75433 0.664031,-0.10621 1.274167,-0.20973 1.762683,-0.30024 1.552223,-0.2876 3.853753,-0.64915 5.114933,-0.80357 1.261181,-0.15442 4.039478,-0.6794 6.173784,-1.16685 3.441582,-0.78602 6.362982,-1.38354 7.408332,-1.51464 0.19403,-0.0243 0.79945,-0.22737 1.34565,-0.45165 0.54621,-0.22428 1.16035,-0.40825 1.36478,-0.40825 1.4418,0 21.67348,-7.18821 31.50919,-11.19518 2.1343,-0.8695 4.75368,-1.89526 5.82083,-2.27945 1.06715,-0.38419 2.73403,-1.07048 3.70417,-1.52548 0.97014,-0.45499 2.63701,-1.16728 3.70416,-1.58285 3.61462,-1.4076 11.53708,-5.27078 22.225,-10.83759 4.99107,-2.5996 13.91353,-7.83908 15.34584,-9.01133 0.58208,-0.47639 1.69299,-1.20845 2.4691,-1.62678 2.31003,-1.24515 9.63688,-6.39987 18.82004,-13.24053 9.60078,-7.15176 8.75483,-6.47266 16.95193,-13.60589 1.20811,-1.05131 2.86444,-3.0912 4.34961,-4.47983 7.9101,-7.32202 15.40186,-15.03513 21.75474,-22.13508 0.008,-0.009 0.0161,-0.0163 0.0243,-0.0253 0.39075,-0.42822 1.04824,-1.29619 1.51464,-1.83297 1.23171,-1.41627 3.92408,-3.83356 4.6824,-4.82244 1.0617,-1.38449 2.60561,-3.39046 3.43131,-4.45761 0.82569,-1.06715 1.7382,-2.27396 2.02779,-2.68201 1.35126,-1.90402 2.97223,-3.95451 4.03076,-5.09891 1.45152,-1.56927 5.1561,-6.91616 7.27191,-10.496 0.88198,-1.49227 2.62962,-4.22148 3.884,-6.06475 1.25439,-1.84326 2.75351,-4.1448 3.33106,-5.11493 0.57755,-0.97014 1.24381,-2.08156 1.48053,-2.46962 0.23673,-0.38805 1.15047,-2.13413 2.03088,-3.88038 2.25099,-4.46475 4.64833,-8.94035 5.06068,-9.448 0.31411,-0.38672 2.02818,-3.47002 2.82876,-5.08858 1.94158,-3.92532 3.92912,-8.21524 4.13464,-8.92349 0.14075,-0.48507 0.88137,-2.31035 1.64589,-4.0566 1.39139,-3.17811 1.63319,-3.71104 3.92017,-8.6434 0.67474,-1.45521 1.4697,-3.3602 1.76682,-4.23333 0.85176,-2.50295 2.34044,-6.42113 2.90163,-7.63778 0.28201,-0.61141 0.51263,-1.33889 0.51263,-1.61644 0,-0.67407 1.32363,-5.09113 1.96112,-6.5443 0.27952,-0.63717 0.5085,-1.44128 0.5085,-1.78697 0,-0.34569 0.56796,-2.36445 1.26246,-4.48603 1.47278,-4.49909 2.16178,-6.98403 3.807,-13.73508 2.21269,-9.07964 2.38613,-9.86922 2.55591,-11.60808 0.0929,-0.95168 0.3455,-2.06034 0.56121,-2.46341 0.21572,-0.40307 0.45387,-1.51398 0.52917,-2.4691 0.0753,-0.95513 0.29562,-2.03319 0.48937,-2.39521 0.1937,-0.36202 0.2653,-0.79876 0.15917,-0.97048 -0.10612,-0.17172 0.12591,-2.11284 0.51521,-4.31395 0.3893,-2.20111 0.7846,-5.08596 0.8785,-6.41098 0.0939,-1.32502 0.28138,-2.58841 0.41651,-2.80706 0.13514,-0.21865 0.28922,-1.51576 0.34262,-2.88251 0.0534,-1.36675 0.2575,-4.94557 0.45372,-7.953 0.19623,-3.00743 0.44809,-6.89664 0.55965,-8.64289 0.11161,-1.74625 0.20041,-24.40579 0.19741,-50.354546 l -0.006,-47.179549 -0.34054,-2.209167 c -0.29352,-1.905101 -0.82803,-6.861401 -1.26608,-11.734685 -0.123,-1.368309 -0.52432,-4.101046 -1.24281,-8.466666 -0.1916,-1.164167 -0.44806,-2.87409 -0.57,-3.799768 -0.12194,-0.925678 -0.36021,-1.768335 -0.52916,-1.872754 -0.16895,-0.104418 -0.30696,-0.569377 -0.30696,-1.033529 0,-0.464152 -0.22756,-1.685416 -0.5054,-2.713529 -0.27785,-1.028112 -0.83878,-3.1389649 -1.24695,-4.691187 -0.87328,-3.3210585 -2.35053,-8.37716592 -2.88613,-9.87795 -0.20774,-0.5820833 -0.53657,-1.6935056 -0.7307,-2.4696167 -0.19413,-0.776111 -0.65292,-2.0899099 -1.01958,-2.9197184 -0.36665,-0.8298085 -0.66662,-1.6858683 -0.66662,-1.9022095 0,-0.5564644 -2.97695,-6.6980304 -5.02192,-11.3755334 -0.34858,-0.765132 -0.63476,-1.812047 -0.97048,-2.499589 -0.3371,-0.690358 -0.93198,-1.918054 -1.44901,-2.981213 -1.54988,-3.370952 -2.39953,-5.822148 -3.49333,-7.912695 -1.15028,-2.198504 -3.57949,-6.287794 -5.47356,-9.214425 -0.62786,-0.970139 -2.04576,-3.272186 -3.15072,-5.11545 -2.64719,-4.415965 -3.45615,-5.557494 -8.64185,-12.196672 -5.21032,-6.670707 -6.04543,-7.698537 -7.57369,-9.322428 -0.63911,-0.679097 -2.63865,-2.822222 -4.44366,-4.7625 -3.91498,-4.208375 -14.2337,-13.978231 -15.76648,-14.927771 -0.21486,-0.133104 -1.3189,-1.065153 -2.4536,-2.071191 -1.13469,-1.006037 -2.5734,-2.196663 -3.1967,-2.645834 -0.62329,-0.449171 -2.49102,-1.88805 -4.15065,-3.197737 -1.65962,-1.309687 -3.10061,-2.381247 -3.20239,-2.381247 -0.10178,0 -0.6153,-0.30084 -1.14102,-0.6687 -1.9412,-1.35832 -8.46872,-5.50365 -11.89178,-7.55147 -8.52358,-5.09919 -19.8305,-10.49565 -28.575,-13.63845 -1.16417,-0.4184 -2.75184,-1.06926 -3.52795,-1.44642 -0.77611,-0.37716 -1.68389,-0.68525 -2.01744,-0.68471 -0.33356,5.4e-4 -1.84203,-0.4088 -3.35174,-0.90951 -1.50971,-0.50071 -3.61782,-1.14071 -4.68498,-1.42213 -1.06715,-0.28141 -2.97216,-0.81201 -4.23334,-1.17926 -4.86014,-1.41528 -6.58703,-1.86167 -8.29045,-2.14354 -0.97014,-0.16053 -3.11326,-0.53004 -4.7625,-0.82062 -1.02281,-0.18022 -2.20705,-0.2002 -3.22977,-0.36587 -2.0895,-0.34571 -4.90867,-0.53596 -7.1267,-0.8077 -5.86767,-0.76485 -11.47437,-1.66317 -18.21853,-2.06499 z M 85.591637,413.83155 c 1.312046,-2.36324 -0.02058,0.0901 0,0 z m 6.877616,-427.706195 c 7.098064,-0.143466 14.034727,1.853587 20.176027,5.807914 1.02982,0.663089 2.33098,1.4892373 2.8913,1.8360636 0.56031,0.3468262 2.26333,1.9223397 3.78478,3.5010783 l 2.76624,2.8706258 0.41858,1.0583333 c 0.23002,0.5820833 0.618,1.2964584 0.86248,1.5875 1.61411,1.9215016 5.18522,10.184555 5.79344,13.405383 l 0.36639,1.94045 0.0258,13.93455 0.0253,13.93455 -0.25942,1.058334 c -0.14275,0.582083 -0.40633,1.245069 -0.58549,1.473295 l -0.32556,0.414961 -1.71721,-0.12764 c -0.94442,-0.07031 -2.44817,-0.376113 -3.34191,-0.679545 -0.89374,-0.303433 -1.94086,-0.551905 -2.32699,-0.551905 -0.38612,0 -1.61099,-0.333144 -2.7218,-0.740523 -2.71605,-0.996083 -4.04712,-1.261917 -9.42785,-1.882056 l -4.58628,-0.52865 -6.87917,-0.136942 -6.879167,-0.137459 -5.644616,0.298689 c -6.436413,0.340573 -10.000656,0.726097 -14.2875,1.545642 -1.649236,0.315296 -3.792361,0.706448 -4.7625,0.869198 -0.970139,0.16275 -3.430593,0.764812 -5.467884,1.337903 -2.037292,0.573091 -3.949151,1.147127 -4.248319,1.275891 l -0.216008,0.09302 -0.393257,0.05219 -0.73794,-0.997355 -0.803052,-1.086756 0.142111,-14.53348 0.138493,-14.151591 0.112137,-0.734322 c 0.0046,-0.02986 0.0093,-0.05999 0.01395,-0.08992 2.09e-4,-0.0013 8.59e-4,-0.0028 10e-4,-0.0041 l 0.607714,-2.199349 c 0.855492,-3.09529 1.735145,-5.399714 2.626197,-6.8791664 0.35058,-0.5820833 0.637995,-1.2724769 0.63872,-1.5342732 0.0013,-0.4556643 1.642347,-3.3685744 3.440617,-6.1081543 1.276168,-1.944183 4.62896,-5.5421869 6.057512,-6.5003785 0.69477,-0.4660125 2.276398,-1.5510341 3.514514,-2.4112223 l 2.251025,-1.5642456 3.746025,-1.5797487 c 5.668194,-2.390302 8.915572,-3.221698 12.212691,-3.127458 0.582084,0.0166 1.931631,0.01227 2.998783,-0.0093 z m 119.836617,0.08061 c 6.3681,-0.0383 11.63504,1.071982 15.23007,3.210657 0.70507,0.419444 2.3138,1.3179535 3.57498,1.9962603 1.26118,0.6783068 3.3637,2.0211385 4.67258,2.9843139 l 2.3797,1.7513143 1.88361,2.1724773 c 1.03587,1.19490762 2.40781,3.1249772 3.04891,4.2891438 0.64111,1.1641665 1.60764,2.8310417 2.14767,3.7041667 1.38252,2.2352725 2.66999,5.6950097 3.34812,8.9958337 l 0.57981,2.822566 -0.0393,14.760856 -0.0398,14.761373 -0.38292,0.715719 -0.38344,0.716235 -1.53686,-0.21084 c -0.84536,-0.115869 -2.49135,-0.532109 -3.65766,-0.925008 -1.1663,-0.392899 -2.43364,-0.714168 -2.81636,-0.714168 -0.38273,0 -0.79424,-0.158922 -0.91416,-0.35295 l -0.21807,-0.35295 h -0.98134 c -0.53973,0 -2.47484,-0.305109 -4.30051,-0.678512 l -3.31918,-0.679028 -7.40833,-0.60048 -7.40833,-0.599963 -6.35,0.21394 c -3.62419,0.122231 -5.53413,0.455661 -8.32146,0.703316 -0.28373,0.01569 -0.52062,0.03903 -0.78496,0.05219 l -3.46181,0.1726 -0.90899,0.21084 c -0.51044,0.07742 -1.72507,0.09854 -2.13475,0.18035 -1.01927,0.203547 -2.52723,0.426387 -3.35122,0.495577 -0.82399,0.06919 -2.76793,0.368894 -4.32015,0.66611 -1.55222,0.297216 -4.439,0.999684 -6.41459,1.560628 l -3.59151,1.019576 -0.35502,-0.219108 c -0.19508,-0.120567 -0.546,-0.692073 -0.7798,-1.270207 l -0.42478,-1.051099 -0.1049,-13.05295 -0.0289,-3.584794 0.10128,-10.667049 0.15452,-1.043864 c 1.32064,-8.9271606 6.76913,-18.67287464 13.45654,-24.0698485 l 2.36575,-1.9094442 3.6313,-1.815393 3.63182,-1.8159103 1.93993,-0.448551 c 1.06716,-0.246681 2.10774,-0.574235 2.31252,-0.728121 0.20477,-0.153885 1.74424,-0.51901 3.42047,-0.81132 l 3.04736,-0.531234 z M 71.850357,139.65035 l 1.064534,0.21291 1.064535,0.21289 9.068697,9.0744 8.275464,8.28113 c 0.306681,0.35899 0.573078,0.68013 0.792716,0.95654 v 0.8661 1.02887 l -2.883028,2.74351 c -1.585747,1.50884 -2.996561,2.74349 -3.135209,2.74349 -0.138648,0 -1.171274,1.15078 -2.294434,2.55747 -1.123159,1.4067 -6.102708,6.6056 -11.065991,11.5533 -4.963282,4.94771 -11.602923,11.66531 -14.754655,14.92778 l -5.730399,5.93142 v 0.60099 0.60101 l 4.714441,4.84465 c 2.592962,2.6644 4.825186,4.84416 4.960937,4.84416 0.135751,0 2.419586,2.23756 5.075143,4.9723 2.655558,2.73475 9.31316,9.46751 14.794445,14.96137 l 9.9658,9.98853 v 1.50689 1.50637 l -5.990332,6.02184 c -3.294881,3.31206 -7.337875,7.40081 -8.984464,9.08576 l -2.994133,3.06338 -1.064017,-0.0305 -1.064018,-0.03 -1.368392,-1.44591 c -0.752562,-0.79517 -4.416105,-4.46182 -8.141105,-8.14834 -3.725001,-3.68655 -7.515828,-7.57624 -8.424292,-8.64341 -1.947143,-2.28726 -4.459807,-4.7627 -11.636499,-11.46492 -2.908686,-2.71639 -5.390636,-5.19856 -5.514909,-5.51595 -0.124273,-0.31738 -2.245079,-2.53683 -4.712891,-4.932 C 20.611896,211.6015 19.975346,210.84907 18.645852,206.90361 l -0.72502,-2.15181 0.0186,-3.52743 0.01809,-3.52795 0.795301,-2.29288 c 1.120666,-3.23099 12.281322,-15.44761 24.15098,-26.43612 1.552222,-1.43699 3.595397,-3.49817 4.540292,-4.58059 2.384033,-2.73102 4.114899,-4.50388 14.935005,-15.29261 z m 137.112563,0.0139 h 1.18029 1.18029 l 10.51098,10.57713 c 5.78104,5.81741 12.43348,12.52477 14.78308,14.90503 2.34959,2.38026 5.36601,5.3679 6.70295,6.63939 4.18571,3.98081 18.8479,19.23927 19.68665,20.48712 0.43991,0.6545 1.10296,1.98368 1.4733,2.95383 l 0.66508,1.74305 0.008,0.0382 v 4.3925 4.40954 l -0.9741,1.94045 c -0.53565,1.06716 -1.32871,2.56151 -1.7632,3.32072 -0.83538,1.45974 -5.41046,6.20429 -5.98258,6.20429 -0.36927,0 -9.25628,8.93464 -10.22625,10.28102 -0.33123,0.45977 -3.25519,3.45415 -6.49676,6.65438 -3.24157,3.20023 -8.36278,8.35893 -11.38122,11.46338 -3.01843,3.10444 -8.11255,8.21973 -11.31972,11.36726 l -5.83117,5.72265 -0.8816,-0.0124 -0.8816,-0.0129 -9.0842,-9.12347 -9.0842,-9.12348 v -1.11516 -1.11571 l 2.97759,-3.29695 c 1.63795,-1.81355 4.29128,-4.53839 5.89628,-6.05493 3.35935,-3.17419 9.54457,-9.36991 15.64453,-15.67242 2.32834,-2.40568 6.67421,-6.71308 9.65781,-9.57204 l 5.42499,-5.19813 -0.22376,-1.11878 -0.22428,-1.11932 -1.70325,-1.79524 c -2.17832,-2.29668 -20.65622,-20.66323 -21.09536,-20.96823 -0.18193,-0.12636 -1.42278,-1.42059 -2.75848,-2.8758 -3.25645,-3.54781 -8.74939,-9.19187 -11.61532,-11.9357 l -2.3337,-2.23449 v -1.08107 -1.08159 l 5.37951,-5.35626 c 2.95892,-2.94611 7.02465,-7.12935 9.03459,-9.29608 z"
         sodipodi:nodetypes="ccsssssssssssssssssssscscsssssssssssccssssssssssssccssssccssccsccssssssscscccccccssssscsssccsssssscccccsssssssssscsssssssssssssssssssssssssssssssssssssccccccsssssssssssssssssssssccssssssssssssssscsccsssssssssssssssssssssssssssssssscccssssssssssscscsssssssssssssssssssssccscccsscccsscccccccsssscccssssscccccccsccssssccssscsccccsssccccccssscscccccccccsssccccccccscccccsccccccccccccssscccccsssccccccccssssssscccssssccccsssscccccssssssscccccccssscccccssccccsccsc" /><path
         style="display:inline;mix-blend-mode:normal;fill:none;fill-opacity:1;stroke:url(#linearGradient4234);stroke-width:20;stroke-linecap:butt;stroke-linejoin:bevel;stroke-dasharray:none;paint-order:markers stroke fill"
         d="m 87.728943,404.44 c 37.047367,15.54815 120.858367,-34.92026 167.687467,-86.77359 0.008,-0.009 0.0161,-0.0163 0.0243,-0.0253 0.39075,-0.42822 1.04824,-1.29619 1.51464,-1.83297 1.23171,-1.41627 3.92408,-3.83356 4.6824,-4.82244 1.0617,-1.38449 2.60561,-3.39046 3.43131,-4.45761 0.82569,-1.06715 1.7382,-2.27396 2.02779,-2.68201 1.35126,-1.90402 2.97223,-3.95451 4.03076,-5.09891 1.45152,-1.56927 5.1561,-6.91616 7.27191,-10.496 0.88198,-1.49227 2.62962,-4.22148 3.884,-6.06475 1.25439,-1.84326 2.75351,-4.1448 3.33106,-5.11493 0.57755,-0.97014 1.24381,-2.08156 1.48053,-2.46962 4.89834,-8.02941 35.0288,-59.77065 39.24257,-124.35416 0.19623,-3.00743 0.44809,-6.89664 0.55965,-8.64289 0.11161,-1.74625 0.20041,-24.40579 0.19741,-50.354546 l -0.006,-47.179549 -0.34054,-2.209167 c -0.29352,-1.905101 -0.82803,-6.861401 -1.26608,-11.734685 -0.123,-1.368309 -0.52432,-4.101046 -1.24281,-8.466666 -0.1916,-1.164167 -0.44806,-2.87409 -0.57,-3.799768 -0.12194,-0.925678 -0.36021,-1.768335 -0.52916,-1.872754 -0.16895,-0.104418 -0.30696,-0.569377 -0.30696,-1.033529 0,-0.464152 -0.22756,-1.685416 -0.5054,-2.713529 -0.27785,-1.028112 -0.83878,-3.1389649 -1.24695,-4.691187 -0.87328,-3.3210585 -2.35053,-8.37716592 -2.88613,-9.87795 -0.20774,-0.5820833 -0.53657,-1.6935056 -0.7307,-2.4696167 -0.19413,-0.776111 -0.65292,-2.0899099 -1.01958,-2.9197184 -0.36665,-0.8298085 -0.66662,-1.6858683 -0.66662,-1.9022095 0,-0.5564644 -2.97695,-6.6980304 -5.02192,-11.3755334 -0.34858,-0.765132 -0.63476,-1.812047 -0.97048,-2.499589 -0.3371,-0.690358 -0.93198,-1.918054 -1.44901,-2.981213 -1.54988,-3.370952 -2.39953,-5.822148 -3.49333,-7.912695 -1.15028,-2.198504 -3.57949,-6.287794 -5.47356,-9.214425 -0.62786,-0.970139 -2.04576,-3.272186 -3.15072,-5.11545 -2.64719,-4.415965 -3.45615,-5.557494 -8.64185,-12.196672 -29.62142,-38.187677 -64.53169,-54.747208 -82.39497,-61.167328 -1.16417,-0.4184 -2.75184,-1.06926 -3.52795,-1.44642 -0.77611,-0.37716 -1.68389,-0.68525 -2.01744,-0.68471 -0.33356,5.4e-4 -1.84203,-0.4088 -3.35174,-0.90951 -1.50971,-0.50071 -3.61782,-1.14071 -4.68498,-1.42213 -1.06715,-0.28141 -2.97216,-0.81201 -4.23334,-1.17926 -4.86014,-1.41528 -6.58703,-1.86167 -8.29045,-2.14354 -0.97014,-0.16053 -3.11326,-0.53004 -4.7625,-0.82062 -1.02281,-0.18022 -2.20705,-0.2002 -3.22977,-0.36587 -13.09247,-1.39141 -14.64504,-2.23511 -29.04961,-3.09342 -4.87986,0.31732 -9.7604,0.62447 -14.63994,0.94671 -2.22873,0.14874 -7.54829,0.80593 -10.9492,1.35289 -1.83622,0.29532 -3.81454,0.60696 -4.39663,0.69246 -1.07221,0.15754 -6.27999,1.18905 -11.1125,2.2009 -1.45521,0.3047 -3.145828,0.7715 -3.756877,1.03767 -0.611048,0.26617 -1.704875,0.59553 -2.430859,0.73173 -0.725983,0.13619 -2.129076,0.54353 -3.117639,0.90486 -0.988563,0.36133 -2.163146,0.65681 -2.610177,0.65681 -0.447031,0 -1.401959,0.29604 -2.121834,0.65784 -0.719874,0.36179 -1.94362,0.84881 -2.719731,1.08262 -0.776111,0.2338 -1.728611,0.55783 -2.116666,0.71985 -0.388056,0.16202 -2.054931,0.80101 -3.704167,1.42007 -1.649236,0.61905 -3.395313,1.2904 -3.880383,1.4919 -0.485069,0.2015 -1.199444,0.48698 -1.5875,0.63407 -11.510916,4.36285 -43.726049,20.947666 -68.9492801,49.732363 -1.6152006,1.843264 -3.11373787,3.51014 -3.33002928,3.704167 -0.21629142,0.194028 -1.05120124,1.306909 -1.85570072,2.473234 -0.8044994,1.166326 -1.8740151,2.595076 -2.3765991,3.175 -3.4309167,3.958883 -10.1133608,13.815287 -12.9134238,19.046383 -0.623146,1.164167 -1.474714,2.751839 -1.891874,3.52795 -0.41716,0.776111 -0.956876,1.620494 -1.19941,1.876888 -0.242535,0.256394 -0.4408,0.640813 -0.4408,0.854211 0,0.213397 -0.223889,0.638843 -0.497644,0.945162 -0.592062,0.66249 -3.382739,6.005985 -3.382739,6.477124 0,0.180378 -0.397047,0.799672 -0.882117,1.376144 l -0.882117,1.047998 v 0.722953 c 0,0.397674 -0.451078,1.615656 -1.002522,2.706811 -0.551443,1.091155 -1.119323,2.460626 -1.261939,3.042709 -0.264095,1.077901 -0.492262,1.638482 -2.110465,5.181596 -0.504053,1.103645 -0.917607,2.135347 -0.918807,2.292883 -0.0012,0.157536 -0.204541,0.683335 -0.452169,1.168404 -0.247628,0.4850697 -0.661995,1.5964918 -0.920357,2.4696167 -0.258362,0.873125 -0.606711,1.9048278 -0.774113,2.2928833 -0.418493,0.97011 -1.773286,6.03927688 -2.074292,7.7612834 -0.135664,0.7761111 -0.734459,2.8395167 -1.331185,4.5857666 -2.260649,6.615531 -4.346092,17.982124 -5.210018,28.398783 -0.361103,4.353937 -0.594679,6.25789 -0.874365,7.12618 l -0.306958,0.952914 -0.03411,67.662533 c -0.01869,37.21437 -0.11338,68.53532 -0.21084,69.60247 -0.732797,8.02429 -1.696234,13.92886 -2.964677,18.1684 -0.34831,1.16417 -0.810466,2.75133 -1.02681,3.52744 -1.505322,5.40019 -4.526096,13.44009 -6.111772,16.2667 -1.073006,1.91274 -1.145768,1.93425 -1.769918,3.01222 -1.400583,2.48986 -2.639544,4.51849 -4.396114,7.26881 -0.103019,0.17139 -0.179964,0.27423 -0.277502,0.43977 -2.116462,3.59195 -5.751717,8.37837 -8.842355,11.64166 -1.052628,1.11143 -1.986885,1.88444 -3.00085,2.89698 -2.497025,2.44978 -3.993166,4.02188 -6.275069,6.04615 -2.935003,2.53438 -5.7964,4.70562 -8.706962,6.6089 -0.586239,0.38335 -0.350872,0.2009 -0.838709,0.51883 -2.333765,1.52388 -4.668469,3.00455 -7.091557,4.36252 -0.699737,0.34571 -1.780786,0.91983 -2.653068,1.42834 -0.970139,0.56554 -2.319167,1.21893 -2.99826,1.45211 -0.6791,0.23318 -2.26677,0.89672 -3.52795,1.47484 -1.26118,0.57813 -2.68993,1.17873 -3.175,1.33429 -0.48507,0.15557 -1.7549,0.61632 -2.82205,1.02371 -2.30087,0.87837 -8.48118,2.67435 -10.2309,2.97346 -0.6791,0.11609 -2.02813,0.39458 -2.99827,0.61857 -0.97013,0.22399 -2.47861,0.44309 -3.35173,0.48679 -0.87313,0.0438 -1.98403,0.19936 -2.4691,0.34571 -0.48507,0.14634 -1.47612,0.24244 -2.20245,0.21394 l -1.32085,-0.0517 -1.41335,0.7214 -1.41335,0.72089 v 0.70021 0.70073 l 2.03191,2.02624 c 1.11778,1.11457 2.61188,2.503 3.32021,3.08508 0.70832,0.58209 2.9759,2.69288 5.03897,4.69119 2.06308,1.99832 4.73615,4.46162 5.94021,5.47356 3.5338,2.96995 18.937106,14.35313 19.422067,14.35313 0.112692,0 2.472912,1.37051 5.244641,3.04581 2.86567,1.73208 4.579183,2.38979 7.201628,3.86385 0.782673,0.44987 2.645662,1.50445 3.171922,1.79603 67.248725,37.26039 160.002434,9.65629 167.652748,-16.56601"
         id="path4230"
         sodipodi:nodetypes="csccsssssssssscccssssssssssscscssssssssssssccssssssssssssssssssssssssccssssssssssssccssssccssccsccssssssscscccccccssssscsc"
         inkscape:path-effect="#path-effect4234"
         inkscape:original-d="m 87.728943,404.44 c 37.047367,15.54815 120.858367,-34.92026 167.687467,-86.77359 0.008,-0.009 0.0161,-0.0163 0.0243,-0.0253 0.39075,-0.42822 1.04824,-1.29619 1.51464,-1.83297 1.23171,-1.41627 3.92408,-3.83356 4.6824,-4.82244 1.0617,-1.38449 2.60561,-3.39046 3.43131,-4.45761 0.82569,-1.06715 1.7382,-2.27396 2.02779,-2.68201 1.35126,-1.90402 2.97223,-3.95451 4.03076,-5.09891 1.45152,-1.56927 5.1561,-6.91616 7.27191,-10.496 0.88198,-1.49227 2.62962,-4.22148 3.884,-6.06475 1.25439,-1.84326 2.75351,-4.1448 3.33106,-5.11493 0.57755,-0.97014 1.24381,-2.08156 1.48053,-2.46962 4.89834,-8.02941 35.0288,-59.77065 39.24257,-124.35416 0.19623,-3.00743 0.44809,-6.89664 0.55965,-8.64289 0.11161,-1.74625 0.20041,-24.40579 0.19741,-50.354546 l -0.006,-47.179549 -0.34054,-2.209167 c -0.29352,-1.905101 -0.82803,-6.861401 -1.26608,-11.734685 -0.123,-1.368309 -0.52432,-4.101046 -1.24281,-8.466666 -0.1916,-1.164167 -0.44806,-2.87409 -0.57,-3.799768 -0.12194,-0.925678 -0.36021,-1.768335 -0.52916,-1.872754 -0.16895,-0.104418 -0.30696,-0.569377 -0.30696,-1.033529 0,-0.464152 -0.22756,-1.685416 -0.5054,-2.713529 -0.27785,-1.028112 -0.83878,-3.1389649 -1.24695,-4.691187 -0.87328,-3.3210585 -2.35053,-8.37716592 -2.88613,-9.87795 -0.20774,-0.5820833 -0.53657,-1.6935056 -0.7307,-2.4696167 -0.19413,-0.776111 -0.65292,-2.0899099 -1.01958,-2.9197184 -0.36665,-0.8298085 -0.66662,-1.6858683 -0.66662,-1.9022095 0,-0.5564644 -2.97695,-6.6980304 -5.02192,-11.3755334 -0.34858,-0.765132 -0.63476,-1.812047 -0.97048,-2.499589 -0.3371,-0.690358 -0.93198,-1.918054 -1.44901,-2.981213 -1.54988,-3.370952 -2.39953,-5.822148 -3.49333,-7.912695 -1.15028,-2.198504 -3.57949,-6.287794 -5.47356,-9.214425 -0.62786,-0.970139 -2.04576,-3.272186 -3.15072,-5.11545 -2.64719,-4.415965 -3.45615,-5.557494 -8.64185,-12.196672 -29.62142,-38.187677 -64.53169,-54.747208 -82.39497,-61.167328 -1.16417,-0.4184 -2.75184,-1.06926 -3.52795,-1.44642 -0.77611,-0.37716 -1.68389,-0.68525 -2.01744,-0.68471 -0.33356,5.4e-4 -1.84203,-0.4088 -3.35174,-0.90951 -1.50971,-0.50071 -3.61782,-1.14071 -4.68498,-1.42213 -1.06715,-0.28141 -2.97216,-0.81201 -4.23334,-1.17926 -4.86014,-1.41528 -6.58703,-1.86167 -8.29045,-2.14354 -0.97014,-0.16053 -3.11326,-0.53004 -4.7625,-0.82062 -1.02281,-0.18022 -2.20705,-0.2002 -3.22977,-0.36587 -13.09247,-1.39141 -14.64504,-2.23511 -29.04961,-3.09342 -4.87986,0.31732 -9.7604,0.62447 -14.63994,0.94671 -2.22873,0.14874 -7.54829,0.80593 -10.9492,1.35289 -1.83622,0.29532 -3.81454,0.60696 -4.39663,0.69246 -1.07221,0.15754 -6.27999,1.18905 -11.1125,2.2009 -1.45521,0.3047 -3.145828,0.7715 -3.756877,1.03767 -0.611048,0.26617 -1.704875,0.59553 -2.430859,0.73173 -0.725983,0.13619 -2.129076,0.54353 -3.117639,0.90486 -0.988563,0.36133 -2.163146,0.65681 -2.610177,0.65681 -0.447031,0 -1.401959,0.29604 -2.121834,0.65784 -0.719874,0.36179 -1.94362,0.84881 -2.719731,1.08262 -0.776111,0.2338 -1.728611,0.55783 -2.116666,0.71985 -0.388056,0.16202 -2.054931,0.80101 -3.704167,1.42007 -1.649236,0.61905 -3.395313,1.2904 -3.880383,1.4919 -0.485069,0.2015 -1.199444,0.48698 -1.5875,0.63407 -11.510916,4.36285 -43.726049,20.947666 -68.9492801,49.732363 -1.6152006,1.843264 -3.11373787,3.51014 -3.33002928,3.704167 -0.21629142,0.194028 -1.05120124,1.306909 -1.85570072,2.473234 -0.8044994,1.166326 -1.8740151,2.595076 -2.3765991,3.175 -3.4309167,3.958883 -10.1133608,13.815287 -12.9134238,19.046383 -0.623146,1.164167 -1.474714,2.751839 -1.891874,3.52795 -0.41716,0.776111 -0.956876,1.620494 -1.19941,1.876888 -0.242535,0.256394 -0.4408,0.640813 -0.4408,0.854211 0,0.213397 -0.223889,0.638843 -0.497644,0.945162 -0.592062,0.66249 -3.382739,6.005985 -3.382739,6.477124 0,0.180378 -0.397047,0.799672 -0.882117,1.376144 l -0.882117,1.047998 v 0.722953 c 0,0.397674 -0.451078,1.615656 -1.002522,2.706811 -0.551443,1.091155 -1.119323,2.460626 -1.261939,3.042709 -0.264095,1.077901 -0.492262,1.638482 -2.110465,5.181596 -0.504053,1.103645 -0.917607,2.135347 -0.918807,2.292883 -0.0012,0.157536 -0.204541,0.683335 -0.452169,1.168404 -0.247628,0.4850697 -0.661995,1.5964918 -0.920357,2.4696167 -0.258362,0.873125 -0.606711,1.9048278 -0.774113,2.2928833 -0.418493,0.97011 -1.773286,6.03927688 -2.074292,7.7612834 -0.135664,0.7761111 -0.734459,2.8395167 -1.331185,4.5857666 -2.260649,6.615531 -4.346092,17.982124 -5.210018,28.398783 -0.361103,4.353937 -0.594679,6.25789 -0.874365,7.12618 l -0.306958,0.952914 -0.03411,67.662533 c -0.01869,37.21437 -0.11338,68.53532 -0.21084,69.60247 -0.732797,8.02429 -1.696234,13.92886 -2.964677,18.1684 -0.34831,1.16417 -0.810466,2.75133 -1.02681,3.52744 -1.505322,5.40019 -4.526096,13.44009 -6.111772,16.2667 -1.073006,1.91274 -1.145768,1.93425 -1.769918,3.01222 -1.400583,2.48986 -2.639544,4.51849 -4.396114,7.26881 -0.103019,0.17139 -0.179964,0.27423 -0.277502,0.43977 -2.116462,3.59195 -5.751717,8.37837 -8.842355,11.64166 -1.052628,1.11143 -1.986885,1.88444 -3.00085,2.89698 -2.497025,2.44978 -3.993166,4.02188 -6.275069,6.04615 -2.935003,2.53438 -5.7964,4.70562 -8.706962,6.6089 -0.586239,0.38335 -0.350872,0.2009 -0.838709,0.51883 -2.333765,1.52388 -4.668469,3.00455 -7.091557,4.36252 -0.699737,0.34571 -1.780786,0.91983 -2.653068,1.42834 -0.970139,0.56554 -2.319167,1.21893 -2.99826,1.45211 -0.6791,0.23318 -2.26677,0.89672 -3.52795,1.47484 -1.26118,0.57813 -2.68993,1.17873 -3.175,1.33429 -0.48507,0.15557 -1.7549,0.61632 -2.82205,1.02371 -2.30087,0.87837 -8.48118,2.67435 -10.2309,2.97346 -0.6791,0.11609 -2.02813,0.39458 -2.99827,0.61857 -0.97013,0.22399 -2.47861,0.44309 -3.35173,0.48679 -0.87313,0.0438 -1.98403,0.19936 -2.4691,0.34571 -0.48507,0.14634 -1.47612,0.24244 -2.20245,0.21394 l -1.32085,-0.0517 -1.41335,0.7214 -1.41335,0.72089 v 0.70021 0.70073 l 2.03191,2.02624 c 1.11778,1.11457 2.61188,2.503 3.32021,3.08508 0.70832,0.58209 2.9759,2.69288 5.03897,4.69119 2.06308,1.99832 4.73615,4.46162 5.94021,5.47356 3.5338,2.96995 18.937106,14.35313 19.422067,14.35313 0.112692,0 2.472912,1.37051 5.244641,3.04581 2.86567,1.73208 4.579183,2.38979 7.201628,3.86385 0.782673,0.44987 2.645662,1.50445 3.171922,1.79603 67.248725,37.26039 160.002434,9.65629 167.652748,-16.56601" /><path
         id="path4219"
         style="display:inline;mix-blend-mode:normal;fill:url(#linearGradient4232);fill-opacity:1;fill-rule:nonzero;stroke:none;stroke-width:1.535;stroke-dasharray:none;stroke-opacity:1;paint-order:fill markers stroke"
         d="m 52.968463,403.81971 c 4.605359,4.2674 19.383363,12.01787 32.579063,10.23367 0.674695,-4.37281 35.356224,-103.18815 35.961804,-104.97604 1.65245,-4.69998 6.87477,-19.68611 4.31292,-14.80594 -0.63754,1.21447 -29.116163,0.77674 -29.428478,-1.76103 -0.474095,-3.85234 -37.426112,94.02553 -43.425309,111.30934 z"
         sodipodi:nodetypes="ccsssc"
         inkscape:label="slash"
         transform="translate(1.875e-6)" /></g><text
       xml:space="preserve"
       style="font-style:normal;font-variant:normal;font-weight:600;font-stretch:normal;font-size:176.389px;line-height:1.05;font-family:Quicksand;-inkscape-font-specification:'Quicksand Semi-Bold';font-variant-numeric:ordinal;letter-spacing:0px;word-spacing:0.0079375px;writing-mode:lr-tb;direction:ltr;fill:#ffffff;stroke-width:20;stroke-linejoin:bevel;paint-order:markers stroke fill"
       x="48.074715"
       y="282.90115"
       id="text1"><tspan
         sodipodi:role="line"
         id="tspan1"
         style="font-style:normal;font-variant:normal;font-weight:bold;font-stretch:normal;font-size:176.389px;font-family:Quicksand;-inkscape-font-specification:'Quicksand Bold';stroke-width:20"
         x="48.074715"
         y="282.90115">ghost</tspan></text><text
       xml:space="preserve"
       style="font-style:normal;font-variant:normal;font-weight:bold;font-stretch:normal;font-size:176.389px;line-height:1.05;font-family:Quicksand;-inkscape-font-specification:'Quicksand Bold';font-variant-numeric:ordinal;letter-spacing:0px;word-spacing:0.0079375px;writing-mode:lr-tb;direction:ltr;fill:#ffffff;stroke-width:20;stroke-linejoin:bevel;paint-order:markers stroke fill"
       x="146.07315"
       y="421.57819"
       id="text2"><tspan
         sodipodi:role="line"
         id="tspan2"
         style="font-style:normal;font-variant:normal;font-weight:300;font-stretch:normal;font-family:Quicksand;-inkscape-font-specification:'Quicksand Light';stroke-width:20"
         x="146.07315"
         y="421.57819">repos</tspan></text></g></svg>
